<mxfile host="65bd71144e" pages="3">
    <diagram id="L_ZSIWU7t6hclJDKckw5" name="Page-1">
        <mxGraphModel dx="288" dy="250" grid="1" gridSize="10" guides="1" tooltips="1" connect="1" arrows="1" fold="1" page="1" pageScale="1" pageWidth="827" pageHeight="1169" math="0" shadow="0">
            <root>
                <mxCell id="0"/>
                <mxCell id="1" parent="0"/>
                <mxCell id="11" value="" style="rounded=1;whiteSpace=wrap;html=1;fillColor=#1ba1e2;fontColor=#ffffff;strokeColor=#006EAF;" parent="1" vertex="1">
                    <mxGeometry x="200" y="308" width="490" height="242" as="geometry"/>
                </mxCell>
                <mxCell id="14" value="Kubernetes&amp;nbsp;&lt;br&gt;Cluster&lt;br&gt;" style="sketch=0;aspect=fixed;html=1;points=[];align=center;image;fontSize=12;image=img/lib/mscae/Kubernetes.svg;" parent="1" vertex="1">
                    <mxGeometry x="220" y="325" width="50" height="48" as="geometry"/>
                </mxCell>
                <mxCell id="21" value="" style="edgeStyle=none;html=1;fontSize=12;fontColor=#FFFFFF;" parent="1" source="17" target="18" edge="1">
                    <mxGeometry relative="1" as="geometry"/>
                </mxCell>
                <mxCell id="17" value="Load Balancer&lt;br&gt;" style="sketch=0;aspect=fixed;html=1;points=[];align=center;image;fontSize=12;image=img/lib/mscae/VM_Linux.svg;" parent="1" vertex="1">
                    <mxGeometry x="820" y="400" width="65.22" height="60" as="geometry"/>
                </mxCell>
                <mxCell id="22" style="edgeStyle=none;html=1;exitX=0.855;exitY=0.855;exitDx=0;exitDy=0;exitPerimeter=0;entryX=0.982;entryY=0.413;entryDx=0;entryDy=0;entryPerimeter=0;fontSize=12;fontColor=#FFFFFF;" parent="1" source="18" edge="1">
                    <mxGeometry relative="1" as="geometry">
                        <mxPoint x="634.04604" y="364.78" as="targetPoint"/>
                    </mxGeometry>
                </mxCell>
                <mxCell id="36" style="edgeStyle=none;html=1;exitX=0.855;exitY=0.145;exitDx=0;exitDy=0;exitPerimeter=0;fontSize=9;fontColor=#FFFFFF;" parent="1" source="18" edge="1">
                    <mxGeometry relative="1" as="geometry">
                        <mxPoint x="635.22" y="472.83978042871604" as="targetPoint"/>
                    </mxGeometry>
                </mxCell>
                <mxCell id="18" value="" style="outlineConnect=0;dashed=0;verticalLabelPosition=bottom;verticalAlign=top;align=center;html=1;shape=mxgraph.aws3.classic_load_balancer;fillColor=#F58536;gradientColor=none;fontSize=12;fontColor=#FFFFFF;direction=west;" parent="1" vertex="1">
                    <mxGeometry x="760" y="410" width="39" height="40" as="geometry"/>
                </mxCell>
                <mxCell id="38" value="" style="edgeStyle=none;html=1;fontSize=9;fontColor=#FFFFFF;entryX=-0.006;entryY=0.463;entryDx=0;entryDy=0;entryPerimeter=0;" parent="1" source="34" edge="1">
                    <mxGeometry relative="1" as="geometry">
                        <mxPoint x="317.9" y="421.86" as="targetPoint"/>
                    </mxGeometry>
                </mxCell>
                <mxCell id="34" value="&lt;font size=&quot;1&quot;&gt;Controlplane&lt;/font&gt;" style="sketch=0;aspect=fixed;html=1;points=[];align=center;image;fontSize=12;image=img/lib/mscae/VM_Linux.svg;" parent="1" vertex="1">
                    <mxGeometry x="212.39" y="420" width="65.22" height="60" as="geometry"/>
                </mxCell>
                <mxCell id="39" value="" style="rounded=1;arcSize=10;dashed=1;strokeColor=#F59D56;fillColor=none;gradientColor=none;dashPattern=8 4;strokeWidth=2;fontSize=9;fontColor=#FFFFFF;" parent="1" vertex="1">
                    <mxGeometry x="320" y="320" width="350" height="220" as="geometry"/>
                </mxCell>
                <mxCell id="41" value="" style="group" parent="1" vertex="1" connectable="0">
                    <mxGeometry x="370" y="340" width="265.22" height="199" as="geometry"/>
                </mxCell>
                <mxCell id="53" value="" style="edgeStyle=none;html=1;fontSize=9;fontColor=#FFFFFF;entryX=0.9;entryY=0.2;entryDx=0;entryDy=0;entryPerimeter=0;exitX=-0.021;exitY=0.438;exitDx=0;exitDy=0;exitPerimeter=0;" parent="41" source="42" target="45" edge="1">
                    <mxGeometry relative="1" as="geometry"/>
                </mxCell>
                <mxCell id="42" value="&lt;span style=&quot;font-size: 9px&quot;&gt;Worker 1&lt;/span&gt;" style="sketch=0;aspect=fixed;html=1;points=[];align=center;image;fontSize=12;image=img/lib/mscae/VM_Linux.svg;" parent="41" vertex="1">
                    <mxGeometry x="200" y="110" width="65.22" height="60" as="geometry"/>
                </mxCell>
                <mxCell id="54" value="" style="edgeStyle=none;html=1;fontSize=9;fontColor=#FFFFFF;entryX=0.1;entryY=0.2;entryDx=0;entryDy=0;entryPerimeter=0;exitX=0.01;exitY=0.404;exitDx=0;exitDy=0;exitPerimeter=0;" parent="41" source="43" target="45" edge="1">
                    <mxGeometry relative="1" as="geometry"/>
                </mxCell>
                <mxCell id="43" value="&lt;font style=&quot;font-size: 9px&quot;&gt;Worker 2&lt;/font&gt;" style="sketch=0;aspect=fixed;html=1;points=[];align=center;image;fontSize=12;image=img/lib/mscae/VM_Linux.svg;" parent="41" vertex="1">
                    <mxGeometry x="200" width="65.22" height="60" as="geometry"/>
                </mxCell>
                <mxCell id="44" value="" style="group" parent="41" vertex="1" connectable="0">
                    <mxGeometry x="110" y="70" width="60" height="70" as="geometry"/>
                </mxCell>
                <mxCell id="45" value="" style="sketch=0;html=1;dashed=0;whitespace=wrap;fillColor=#2875E2;strokeColor=#ffffff;points=[[0.005,0.63,0],[0.1,0.2,0],[0.9,0.2,0],[0.5,0,0],[0.995,0.63,0],[0.72,0.99,0],[0.5,1,0],[0.28,0.99,0]];shape=mxgraph.kubernetes.icon;prIcon=svc;fontSize=12;fontColor=#FFFFFF;direction=south;" parent="44" vertex="1">
                    <mxGeometry x="10" width="40" height="40" as="geometry"/>
                </mxCell>
                <mxCell id="46" value="&lt;font color=&quot;#ffffff&quot;&gt;Nginx controller&lt;/font&gt;" style="text;html=1;strokeColor=none;fillColor=none;align=center;verticalAlign=middle;whiteSpace=wrap;rounded=0;fontSize=9;fontColor=#000000;" parent="44" vertex="1">
                    <mxGeometry y="40" width="60" height="30" as="geometry"/>
                </mxCell>
                <mxCell id="47" value="" style="group" parent="41" vertex="1" connectable="0">
                    <mxGeometry y="130" width="60" height="69" as="geometry"/>
                </mxCell>
                <mxCell id="48" value="" style="sketch=0;html=1;dashed=0;whitespace=wrap;fillColor=#2875E2;strokeColor=#ffffff;points=[[0.005,0.63,0],[0.1,0.2,0],[0.9,0.2,0],[0.5,0,0],[0.995,0.63,0],[0.72,0.99,0],[0.5,1,0],[0.28,0.99,0]];shape=mxgraph.kubernetes.icon;prIcon=pod;fontSize=12;fontColor=#FFFFFF;" parent="47" vertex="1">
                    <mxGeometry x="10" width="40" height="38" as="geometry"/>
                </mxCell>
                <mxCell id="49" value="App 2" style="text;html=1;strokeColor=none;fillColor=none;align=center;verticalAlign=middle;whiteSpace=wrap;rounded=0;fontSize=9;fontColor=#FFFFFF;" parent="47" vertex="1">
                    <mxGeometry y="39" width="60" height="30" as="geometry"/>
                </mxCell>
                <mxCell id="50" value="" style="group" parent="41" vertex="1" connectable="0">
                    <mxGeometry y="10" width="60" height="69" as="geometry"/>
                </mxCell>
                <mxCell id="51" value="" style="sketch=0;html=1;dashed=0;whitespace=wrap;fillColor=#2875E2;strokeColor=#ffffff;points=[[0.005,0.63,0],[0.1,0.2,0],[0.9,0.2,0],[0.5,0,0],[0.995,0.63,0],[0.72,0.99,0],[0.5,1,0],[0.28,0.99,0]];shape=mxgraph.kubernetes.icon;prIcon=pod;fontSize=12;fontColor=#FFFFFF;" parent="50" vertex="1">
                    <mxGeometry x="10" width="40" height="38" as="geometry"/>
                </mxCell>
                <mxCell id="52" value="App 1" style="text;html=1;strokeColor=none;fillColor=none;align=center;verticalAlign=middle;whiteSpace=wrap;rounded=0;fontSize=9;fontColor=#FFFFFF;" parent="50" vertex="1">
                    <mxGeometry y="39" width="60" height="30" as="geometry"/>
                </mxCell>
                <mxCell id="56" value="" style="edgeStyle=none;html=1;fontSize=9;fontColor=#FFFFFF;entryX=0.995;entryY=0.63;entryDx=0;entryDy=0;entryPerimeter=0;" parent="41" source="45" target="51" edge="1">
                    <mxGeometry relative="1" as="geometry"/>
                </mxCell>
                <mxCell id="57" value="" style="edgeStyle=none;html=1;fontSize=9;fontColor=#FFFFFF;entryX=0.995;entryY=0.63;entryDx=0;entryDy=0;entryPerimeter=0;" parent="1" target="48" edge="1">
                    <mxGeometry relative="1" as="geometry">
                        <mxPoint x="490" y="440" as="sourcePoint"/>
                        <mxPoint x="440" y="399" as="targetPoint"/>
                    </mxGeometry>
                </mxCell>
                <mxCell id="59" value="" style="sketch=0;aspect=fixed;html=1;points=[];align=center;image;fontSize=12;image=img/lib/mscae/Person.svg;fontColor=#FFFFFF;" parent="1" vertex="1">
                    <mxGeometry x="414" y="730" width="37" height="50" as="geometry"/>
                </mxCell>
                <mxCell id="61" value="Http Calls" style="outlineConnect=0;dashed=0;verticalLabelPosition=bottom;verticalAlign=top;align=center;html=1;shape=mxgraph.aws3.http_protocol;fillColor=#5294CF;gradientColor=none;fontSize=9;fontColor=#FFFFFF;" parent="1" vertex="1">
                    <mxGeometry x="822.22" y="623" width="63" height="66" as="geometry"/>
                </mxCell>
                <mxCell id="62" value="Kubectl&lt;br&gt;(Command Line interface)" style="outlineConnect=0;dashed=0;verticalLabelPosition=bottom;verticalAlign=top;align=center;html=1;shape=mxgraph.aws3.cli;fillColor=#444444;gradientColor=none;fontSize=9;fontColor=#FFFFFF;" parent="1" vertex="1">
                    <mxGeometry x="218" y="623" width="52" height="60" as="geometry"/>
                </mxCell>
                <mxCell id="63" value="" style="endArrow=classic;html=1;fontSize=9;fontColor=#FFFFFF;exitX=-0.025;exitY=0.748;exitDx=0;exitDy=0;exitPerimeter=0;entryX=0.5;entryY=1;entryDx=0;entryDy=0;entryPerimeter=0;" parent="1" source="59" target="62" edge="1">
                    <mxGeometry width="50" height="50" relative="1" as="geometry">
                        <mxPoint x="390" y="680" as="sourcePoint"/>
                        <mxPoint x="230" y="767" as="targetPoint"/>
                        <Array as="points">
                            <mxPoint x="244" y="770"/>
                        </Array>
                    </mxGeometry>
                </mxCell>
                <mxCell id="64" value="" style="endArrow=classic;html=1;fontSize=9;fontColor=#FFFFFF;exitX=0.957;exitY=0.768;exitDx=0;exitDy=0;exitPerimeter=0;entryX=0.5;entryY=1;entryDx=0;entryDy=0;entryPerimeter=0;" parent="1" source="59" target="61" edge="1">
                    <mxGeometry width="50" height="50" relative="1" as="geometry">
                        <mxPoint x="423.07500000000005" y="777.4000000000001" as="sourcePoint"/>
                        <mxPoint x="256" y="690" as="targetPoint"/>
                        <Array as="points">
                            <mxPoint x="854" y="768"/>
                        </Array>
                    </mxGeometry>
                </mxCell>
                <mxCell id="65" value="" style="endArrow=classic;html=1;fontSize=9;fontColor=#FFFFFF;exitX=0.57;exitY=0;exitDx=0;exitDy=0;exitPerimeter=0;" parent="1" source="62" target="34" edge="1">
                    <mxGeometry width="50" height="50" relative="1" as="geometry">
                        <mxPoint x="430" y="600" as="sourcePoint"/>
                        <mxPoint x="480" y="550" as="targetPoint"/>
                    </mxGeometry>
                </mxCell>
                <mxCell id="66" value="" style="endArrow=classic;html=1;fontSize=9;fontColor=#FFFFFF;exitX=0.5;exitY=0;exitDx=0;exitDy=0;exitPerimeter=0;" parent="1" source="61" edge="1">
                    <mxGeometry width="50" height="50" relative="1" as="geometry">
                        <mxPoint x="690" y="610" as="sourcePoint"/>
                        <mxPoint x="854" y="470" as="targetPoint"/>
                    </mxGeometry>
                </mxCell>
            </root>
        </mxGraphModel>
    </diagram>
    <diagram id="WSA7x9IkaDMf-lh9cVL_" name="Page-2">
        <mxGraphModel dx="954" dy="466" grid="1" gridSize="10" guides="1" tooltips="1" connect="1" arrows="1" fold="1" page="1" pageScale="1" pageWidth="850" pageHeight="1100" math="0" shadow="0">
            <root>
                <mxCell id="0"/>
                <mxCell id="1" parent="0"/>
                <mxCell id="rzM2hTm-P9SdA2Wgw8YD-1" value="" style="rounded=1;whiteSpace=wrap;html=1;fillColor=#1ba1e2;fontColor=#ffffff;strokeColor=#006EAF;" vertex="1" parent="1">
                    <mxGeometry x="200" y="308" width="490" height="242" as="geometry"/>
                </mxCell>
                <mxCell id="rzM2hTm-P9SdA2Wgw8YD-2" value="Kubernetes&amp;nbsp;&lt;br&gt;Cluster&lt;br&gt;" style="sketch=0;aspect=fixed;html=1;points=[];align=center;image;fontSize=12;image=img/lib/mscae/Kubernetes.svg;" vertex="1" parent="1">
                    <mxGeometry x="220" y="325" width="50" height="48" as="geometry"/>
                </mxCell>
                <mxCell id="rzM2hTm-P9SdA2Wgw8YD-3" value="" style="edgeStyle=none;html=1;fontSize=12;fontColor=#FFFFFF;" edge="1" parent="1" source="rzM2hTm-P9SdA2Wgw8YD-4" target="rzM2hTm-P9SdA2Wgw8YD-7">
                    <mxGeometry relative="1" as="geometry"/>
                </mxCell>
                <mxCell id="rzM2hTm-P9SdA2Wgw8YD-4" value="Load Balancer&lt;br&gt;" style="sketch=0;aspect=fixed;html=1;points=[];align=center;image;fontSize=12;image=img/lib/mscae/VM_Linux.svg;" vertex="1" parent="1">
                    <mxGeometry x="820" y="400" width="65.22" height="60" as="geometry"/>
                </mxCell>
                <mxCell id="rzM2hTm-P9SdA2Wgw8YD-5" style="edgeStyle=none;html=1;exitX=0.855;exitY=0.855;exitDx=0;exitDy=0;exitPerimeter=0;entryX=0.982;entryY=0.413;entryDx=0;entryDy=0;entryPerimeter=0;fontSize=12;fontColor=#FFFFFF;" edge="1" parent="1" source="rzM2hTm-P9SdA2Wgw8YD-7">
                    <mxGeometry relative="1" as="geometry">
                        <mxPoint x="634.04604" y="364.78" as="targetPoint"/>
                    </mxGeometry>
                </mxCell>
                <mxCell id="rzM2hTm-P9SdA2Wgw8YD-6" style="edgeStyle=none;html=1;exitX=0.855;exitY=0.145;exitDx=0;exitDy=0;exitPerimeter=0;fontSize=9;fontColor=#FFFFFF;" edge="1" parent="1" source="rzM2hTm-P9SdA2Wgw8YD-7">
                    <mxGeometry relative="1" as="geometry">
                        <mxPoint x="635.22" y="472.83978042871604" as="targetPoint"/>
                    </mxGeometry>
                </mxCell>
                <mxCell id="rzM2hTm-P9SdA2Wgw8YD-7" value="" style="outlineConnect=0;dashed=0;verticalLabelPosition=bottom;verticalAlign=top;align=center;html=1;shape=mxgraph.aws3.classic_load_balancer;fillColor=#F58536;gradientColor=none;fontSize=12;fontColor=#FFFFFF;direction=west;" vertex="1" parent="1">
                    <mxGeometry x="760" y="410" width="39" height="40" as="geometry"/>
                </mxCell>
                <mxCell id="rzM2hTm-P9SdA2Wgw8YD-8" value="" style="edgeStyle=none;html=1;fontSize=9;fontColor=#FFFFFF;entryX=-0.006;entryY=0.463;entryDx=0;entryDy=0;entryPerimeter=0;" edge="1" parent="1" source="rzM2hTm-P9SdA2Wgw8YD-9">
                    <mxGeometry relative="1" as="geometry">
                        <mxPoint x="317.9" y="421.86" as="targetPoint"/>
                    </mxGeometry>
                </mxCell>
                <mxCell id="rzM2hTm-P9SdA2Wgw8YD-9" value="&lt;font size=&quot;1&quot;&gt;Controlplane&lt;/font&gt;" style="sketch=0;aspect=fixed;html=1;points=[];align=center;image;fontSize=12;image=img/lib/mscae/VM_Linux.svg;" vertex="1" parent="1">
                    <mxGeometry x="212.39" y="420" width="65.22" height="60" as="geometry"/>
                </mxCell>
                <mxCell id="rzM2hTm-P9SdA2Wgw8YD-10" value="" style="rounded=1;arcSize=10;dashed=1;strokeColor=#F59D56;fillColor=none;gradientColor=none;dashPattern=8 4;strokeWidth=2;fontSize=9;fontColor=#FFFFFF;" vertex="1" parent="1">
                    <mxGeometry x="320" y="320" width="350" height="220" as="geometry"/>
                </mxCell>
                <mxCell id="rzM2hTm-P9SdA2Wgw8YD-11" value="" style="group" vertex="1" connectable="0" parent="1">
                    <mxGeometry x="370" y="340" width="265.22" height="199" as="geometry"/>
                </mxCell>
                <mxCell id="rzM2hTm-P9SdA2Wgw8YD-12" value="" style="edgeStyle=none;html=1;fontSize=9;fontColor=#FFFFFF;entryX=0.9;entryY=0.2;entryDx=0;entryDy=0;entryPerimeter=0;exitX=-0.021;exitY=0.438;exitDx=0;exitDy=0;exitPerimeter=0;" edge="1" parent="rzM2hTm-P9SdA2Wgw8YD-11" source="rzM2hTm-P9SdA2Wgw8YD-13" target="rzM2hTm-P9SdA2Wgw8YD-17">
                    <mxGeometry relative="1" as="geometry"/>
                </mxCell>
                <mxCell id="rzM2hTm-P9SdA2Wgw8YD-13" value="&lt;span style=&quot;font-size: 9px&quot;&gt;Worker 1&lt;/span&gt;" style="sketch=0;aspect=fixed;html=1;points=[];align=center;image;fontSize=12;image=img/lib/mscae/VM_Linux.svg;" vertex="1" parent="rzM2hTm-P9SdA2Wgw8YD-11">
                    <mxGeometry x="200" y="110" width="65.22" height="60" as="geometry"/>
                </mxCell>
                <mxCell id="rzM2hTm-P9SdA2Wgw8YD-14" value="" style="edgeStyle=none;html=1;fontSize=9;fontColor=#FFFFFF;entryX=0.1;entryY=0.2;entryDx=0;entryDy=0;entryPerimeter=0;exitX=0.01;exitY=0.404;exitDx=0;exitDy=0;exitPerimeter=0;" edge="1" parent="rzM2hTm-P9SdA2Wgw8YD-11" source="rzM2hTm-P9SdA2Wgw8YD-15" target="rzM2hTm-P9SdA2Wgw8YD-17">
                    <mxGeometry relative="1" as="geometry"/>
                </mxCell>
                <mxCell id="rzM2hTm-P9SdA2Wgw8YD-15" value="&lt;font style=&quot;font-size: 9px&quot;&gt;Worker 2&lt;/font&gt;" style="sketch=0;aspect=fixed;html=1;points=[];align=center;image;fontSize=12;image=img/lib/mscae/VM_Linux.svg;" vertex="1" parent="rzM2hTm-P9SdA2Wgw8YD-11">
                    <mxGeometry x="200" width="65.22" height="60" as="geometry"/>
                </mxCell>
                <mxCell id="rzM2hTm-P9SdA2Wgw8YD-16" value="" style="group" vertex="1" connectable="0" parent="rzM2hTm-P9SdA2Wgw8YD-11">
                    <mxGeometry x="110" y="70" width="60" height="70" as="geometry"/>
                </mxCell>
                <mxCell id="rzM2hTm-P9SdA2Wgw8YD-17" value="" style="sketch=0;html=1;dashed=0;whitespace=wrap;fillColor=#2875E2;strokeColor=#ffffff;points=[[0.005,0.63,0],[0.1,0.2,0],[0.9,0.2,0],[0.5,0,0],[0.995,0.63,0],[0.72,0.99,0],[0.5,1,0],[0.28,0.99,0]];shape=mxgraph.kubernetes.icon;prIcon=svc;fontSize=12;fontColor=#FFFFFF;direction=south;" vertex="1" parent="rzM2hTm-P9SdA2Wgw8YD-16">
                    <mxGeometry x="10" width="40" height="40" as="geometry"/>
                </mxCell>
                <mxCell id="rzM2hTm-P9SdA2Wgw8YD-18" value="&lt;font color=&quot;#ffffff&quot;&gt;Nginx controller&lt;/font&gt;" style="text;html=1;strokeColor=none;fillColor=none;align=center;verticalAlign=middle;whiteSpace=wrap;rounded=0;fontSize=9;fontColor=#000000;" vertex="1" parent="rzM2hTm-P9SdA2Wgw8YD-16">
                    <mxGeometry y="40" width="60" height="30" as="geometry"/>
                </mxCell>
                <mxCell id="rzM2hTm-P9SdA2Wgw8YD-19" value="" style="group" vertex="1" connectable="0" parent="rzM2hTm-P9SdA2Wgw8YD-11">
                    <mxGeometry y="130" width="60" height="69" as="geometry"/>
                </mxCell>
                <mxCell id="rzM2hTm-P9SdA2Wgw8YD-20" value="" style="sketch=0;html=1;dashed=0;whitespace=wrap;fillColor=#2875E2;strokeColor=#ffffff;points=[[0.005,0.63,0],[0.1,0.2,0],[0.9,0.2,0],[0.5,0,0],[0.995,0.63,0],[0.72,0.99,0],[0.5,1,0],[0.28,0.99,0]];shape=mxgraph.kubernetes.icon;prIcon=pod;fontSize=12;fontColor=#FFFFFF;" vertex="1" parent="rzM2hTm-P9SdA2Wgw8YD-19">
                    <mxGeometry x="10" width="40" height="38" as="geometry"/>
                </mxCell>
                <mxCell id="rzM2hTm-P9SdA2Wgw8YD-21" value="App 2" style="text;html=1;strokeColor=none;fillColor=none;align=center;verticalAlign=middle;whiteSpace=wrap;rounded=0;fontSize=9;fontColor=#FFFFFF;" vertex="1" parent="rzM2hTm-P9SdA2Wgw8YD-19">
                    <mxGeometry y="39" width="60" height="30" as="geometry"/>
                </mxCell>
                <mxCell id="rzM2hTm-P9SdA2Wgw8YD-22" value="" style="group" vertex="1" connectable="0" parent="rzM2hTm-P9SdA2Wgw8YD-11">
                    <mxGeometry y="10" width="60" height="69" as="geometry"/>
                </mxCell>
                <mxCell id="rzM2hTm-P9SdA2Wgw8YD-23" value="" style="sketch=0;html=1;dashed=0;whitespace=wrap;fillColor=#2875E2;strokeColor=#ffffff;points=[[0.005,0.63,0],[0.1,0.2,0],[0.9,0.2,0],[0.5,0,0],[0.995,0.63,0],[0.72,0.99,0],[0.5,1,0],[0.28,0.99,0]];shape=mxgraph.kubernetes.icon;prIcon=pod;fontSize=12;fontColor=#FFFFFF;" vertex="1" parent="rzM2hTm-P9SdA2Wgw8YD-22">
                    <mxGeometry x="10" width="40" height="38" as="geometry"/>
                </mxCell>
                <mxCell id="rzM2hTm-P9SdA2Wgw8YD-24" value="App 1" style="text;html=1;strokeColor=none;fillColor=none;align=center;verticalAlign=middle;whiteSpace=wrap;rounded=0;fontSize=9;fontColor=#FFFFFF;" vertex="1" parent="rzM2hTm-P9SdA2Wgw8YD-22">
                    <mxGeometry y="39" width="60" height="30" as="geometry"/>
                </mxCell>
                <mxCell id="rzM2hTm-P9SdA2Wgw8YD-25" value="" style="edgeStyle=none;html=1;fontSize=9;fontColor=#FFFFFF;entryX=0.995;entryY=0.63;entryDx=0;entryDy=0;entryPerimeter=0;" edge="1" parent="rzM2hTm-P9SdA2Wgw8YD-11" source="rzM2hTm-P9SdA2Wgw8YD-17" target="rzM2hTm-P9SdA2Wgw8YD-23">
                    <mxGeometry relative="1" as="geometry"/>
                </mxCell>
                <mxCell id="rzM2hTm-P9SdA2Wgw8YD-26" value="" style="edgeStyle=none;html=1;fontSize=9;fontColor=#FFFFFF;entryX=0.995;entryY=0.63;entryDx=0;entryDy=0;entryPerimeter=0;" edge="1" parent="1" target="rzM2hTm-P9SdA2Wgw8YD-20">
                    <mxGeometry relative="1" as="geometry">
                        <mxPoint x="490" y="440" as="sourcePoint"/>
                        <mxPoint x="440" y="399" as="targetPoint"/>
                    </mxGeometry>
                </mxCell>
                <mxCell id="rzM2hTm-P9SdA2Wgw8YD-27" value="&lt;font color=&quot;#000000&quot;&gt;User&lt;/font&gt;" style="sketch=0;aspect=fixed;html=1;points=[];align=center;image;fontSize=12;image=img/lib/mscae/Person.svg;fontColor=#FFFFFF;" vertex="1" parent="1">
                    <mxGeometry x="414" y="730" width="37" height="50" as="geometry"/>
                </mxCell>
                <mxCell id="rzM2hTm-P9SdA2Wgw8YD-28" value="&lt;font color=&quot;#000000&quot;&gt;Http Calls&lt;/font&gt;" style="outlineConnect=0;dashed=0;verticalLabelPosition=bottom;verticalAlign=top;align=center;html=1;shape=mxgraph.aws3.http_protocol;fillColor=#5294CF;gradientColor=none;fontSize=9;fontColor=#FFFFFF;" vertex="1" parent="1">
                    <mxGeometry x="822.22" y="623" width="63" height="66" as="geometry"/>
                </mxCell>
                <mxCell id="rzM2hTm-P9SdA2Wgw8YD-29" value="&lt;font color=&quot;#000000&quot;&gt;Kubectl&lt;br&gt;(Command Line interface)&lt;/font&gt;" style="outlineConnect=0;dashed=0;verticalLabelPosition=bottom;verticalAlign=top;align=center;html=1;shape=mxgraph.aws3.cli;fillColor=#444444;gradientColor=none;fontSize=9;fontColor=#FFFFFF;" vertex="1" parent="1">
                    <mxGeometry x="218" y="623" width="52" height="60" as="geometry"/>
                </mxCell>
                <mxCell id="rzM2hTm-P9SdA2Wgw8YD-30" value="" style="endArrow=classic;html=1;fontSize=9;fontColor=#FFFFFF;exitX=-0.025;exitY=0.748;exitDx=0;exitDy=0;exitPerimeter=0;entryX=0.5;entryY=1;entryDx=0;entryDy=0;entryPerimeter=0;" edge="1" parent="1" source="rzM2hTm-P9SdA2Wgw8YD-27" target="rzM2hTm-P9SdA2Wgw8YD-29">
                    <mxGeometry width="50" height="50" relative="1" as="geometry">
                        <mxPoint x="390" y="680" as="sourcePoint"/>
                        <mxPoint x="230" y="767" as="targetPoint"/>
                        <Array as="points">
                            <mxPoint x="244" y="770"/>
                        </Array>
                    </mxGeometry>
                </mxCell>
                <mxCell id="rzM2hTm-P9SdA2Wgw8YD-31" value="" style="endArrow=classic;html=1;fontSize=9;fontColor=#FFFFFF;exitX=0.957;exitY=0.768;exitDx=0;exitDy=0;exitPerimeter=0;entryX=0.5;entryY=1;entryDx=0;entryDy=0;entryPerimeter=0;" edge="1" parent="1" source="rzM2hTm-P9SdA2Wgw8YD-27" target="rzM2hTm-P9SdA2Wgw8YD-28">
                    <mxGeometry width="50" height="50" relative="1" as="geometry">
                        <mxPoint x="423.07500000000005" y="777.4000000000001" as="sourcePoint"/>
                        <mxPoint x="256" y="690" as="targetPoint"/>
                        <Array as="points">
                            <mxPoint x="854" y="768"/>
                        </Array>
                    </mxGeometry>
                </mxCell>
                <mxCell id="rzM2hTm-P9SdA2Wgw8YD-32" value="" style="endArrow=classic;html=1;fontSize=9;fontColor=#FFFFFF;exitX=0.57;exitY=0;exitDx=0;exitDy=0;exitPerimeter=0;" edge="1" parent="1" source="rzM2hTm-P9SdA2Wgw8YD-29" target="rzM2hTm-P9SdA2Wgw8YD-9">
                    <mxGeometry width="50" height="50" relative="1" as="geometry">
                        <mxPoint x="430" y="600" as="sourcePoint"/>
                        <mxPoint x="480" y="550" as="targetPoint"/>
                    </mxGeometry>
                </mxCell>
                <mxCell id="rzM2hTm-P9SdA2Wgw8YD-33" value="" style="endArrow=classic;html=1;fontSize=9;fontColor=#FFFFFF;exitX=0.5;exitY=0;exitDx=0;exitDy=0;exitPerimeter=0;" edge="1" parent="1" source="rzM2hTm-P9SdA2Wgw8YD-28">
                    <mxGeometry width="50" height="50" relative="1" as="geometry">
                        <mxPoint x="690" y="610" as="sourcePoint"/>
                        <mxPoint x="854" y="470" as="targetPoint"/>
                    </mxGeometry>
                </mxCell>
            </root>
        </mxGraphModel>
    </diagram>
    <diagram id="RHWAQSXkW3zuAWS2aOrw" name="Page-3">
        <mxGraphModel dx="288" dy="250" grid="1" gridSize="10" guides="1" tooltips="1" connect="1" arrows="1" fold="1" page="1" pageScale="1" pageWidth="850" pageHeight="1100" math="0" shadow="0">
            <root>
                <mxCell id="0"/>
                <mxCell id="1" parent="0"/>
                <mxCell id="Ks1MhP4g6qmOznbefHmb-1" value="" style="rounded=1;whiteSpace=wrap;html=1;fillColor=#1ba1e2;fontColor=#ffffff;strokeColor=#006EAF;" parent="1" vertex="1">
                    <mxGeometry x="200" y="308" width="490" height="242" as="geometry"/>
                </mxCell>
                <mxCell id="Ks1MhP4g6qmOznbefHmb-2" value="Kubernetes&amp;nbsp;&lt;br&gt;Cluster&lt;br&gt;" style="sketch=0;aspect=fixed;html=1;points=[];align=center;image;fontSize=12;image=img/lib/mscae/Kubernetes.svg;" parent="1" vertex="1">
                    <mxGeometry x="220" y="325" width="50" height="48" as="geometry"/>
                </mxCell>
                <mxCell id="Ks1MhP4g6qmOznbefHmb-3" value="" style="edgeStyle=none;html=1;fontSize=12;fontColor=#FFFFFF;" parent="1" source="Ks1MhP4g6qmOznbefHmb-4" target="Ks1MhP4g6qmOznbefHmb-7" edge="1">
                    <mxGeometry relative="1" as="geometry"/>
                </mxCell>
                <mxCell id="Ks1MhP4g6qmOznbefHmb-4" value="Load Balancer&lt;br&gt;" style="sketch=0;aspect=fixed;html=1;points=[];align=center;image;fontSize=12;image=img/lib/mscae/VM_Linux.svg;" parent="1" vertex="1">
                    <mxGeometry x="820" y="400" width="65.22" height="60" as="geometry"/>
                </mxCell>
                <mxCell id="Ks1MhP4g6qmOznbefHmb-5" style="edgeStyle=none;html=1;exitX=0.855;exitY=0.855;exitDx=0;exitDy=0;exitPerimeter=0;entryX=0.982;entryY=0.413;entryDx=0;entryDy=0;entryPerimeter=0;fontSize=12;fontColor=#FFFFFF;" parent="1" source="Ks1MhP4g6qmOznbefHmb-7" edge="1">
                    <mxGeometry relative="1" as="geometry">
                        <mxPoint x="634.04604" y="364.78" as="targetPoint"/>
                    </mxGeometry>
                </mxCell>
                <mxCell id="Ks1MhP4g6qmOznbefHmb-6" style="edgeStyle=none;html=1;exitX=0.855;exitY=0.145;exitDx=0;exitDy=0;exitPerimeter=0;fontSize=9;fontColor=#FFFFFF;" parent="1" source="Ks1MhP4g6qmOznbefHmb-7" edge="1">
                    <mxGeometry relative="1" as="geometry">
                        <mxPoint x="635.22" y="472.83978042871604" as="targetPoint"/>
                    </mxGeometry>
                </mxCell>
                <mxCell id="Ks1MhP4g6qmOznbefHmb-7" value="" style="outlineConnect=0;dashed=0;verticalLabelPosition=bottom;verticalAlign=top;align=center;html=1;shape=mxgraph.aws3.classic_load_balancer;fillColor=#F58536;gradientColor=none;fontSize=12;fontColor=#FFFFFF;direction=west;" parent="1" vertex="1">
                    <mxGeometry x="760" y="410" width="39" height="40" as="geometry"/>
                </mxCell>
                <mxCell id="Ks1MhP4g6qmOznbefHmb-8" value="" style="edgeStyle=none;html=1;fontSize=9;fontColor=#FFFFFF;entryX=-0.006;entryY=0.463;entryDx=0;entryDy=0;entryPerimeter=0;" parent="1" source="Ks1MhP4g6qmOznbefHmb-9" edge="1">
                    <mxGeometry relative="1" as="geometry">
                        <mxPoint x="317.9000000000001" y="421.86" as="targetPoint"/>
                    </mxGeometry>
                </mxCell>
                <mxCell id="Ks1MhP4g6qmOznbefHmb-9" value="&lt;font size=&quot;1&quot;&gt;Controlplane&lt;/font&gt;" style="sketch=0;aspect=fixed;html=1;points=[];align=center;image;fontSize=12;image=img/lib/mscae/VM_Linux.svg;" parent="1" vertex="1">
                    <mxGeometry x="212.39" y="420" width="65.22" height="60" as="geometry"/>
                </mxCell>
                <mxCell id="Ks1MhP4g6qmOznbefHmb-10" value="" style="rounded=1;arcSize=10;dashed=1;strokeColor=#F59D56;fillColor=none;gradientColor=none;dashPattern=8 4;strokeWidth=2;fontSize=9;fontColor=#FFFFFF;" parent="1" vertex="1">
                    <mxGeometry x="320" y="320" width="350" height="220" as="geometry"/>
                </mxCell>
                <mxCell id="Ks1MhP4g6qmOznbefHmb-11" value="" style="group" parent="1" vertex="1" connectable="0">
                    <mxGeometry x="370" y="340" width="265.22" height="199" as="geometry"/>
                </mxCell>
                <mxCell id="Ks1MhP4g6qmOznbefHmb-12" value="" style="edgeStyle=none;html=1;fontSize=9;fontColor=#FFFFFF;entryX=0.9;entryY=0.2;entryDx=0;entryDy=0;entryPerimeter=0;exitX=-0.021;exitY=0.438;exitDx=0;exitDy=0;exitPerimeter=0;" parent="Ks1MhP4g6qmOznbefHmb-11" source="Ks1MhP4g6qmOznbefHmb-13" target="Ks1MhP4g6qmOznbefHmb-17" edge="1">
                    <mxGeometry relative="1" as="geometry"/>
                </mxCell>
                <mxCell id="Ks1MhP4g6qmOznbefHmb-13" value="&lt;span style=&quot;font-size: 9px&quot;&gt;Worker 1&lt;/span&gt;" style="sketch=0;aspect=fixed;html=1;points=[];align=center;image;fontSize=12;image=img/lib/mscae/VM_Linux.svg;" parent="Ks1MhP4g6qmOznbefHmb-11" vertex="1">
                    <mxGeometry x="200" y="110" width="65.22" height="60" as="geometry"/>
                </mxCell>
                <mxCell id="Ks1MhP4g6qmOznbefHmb-14" value="" style="edgeStyle=none;html=1;fontSize=9;fontColor=#FFFFFF;entryX=0.1;entryY=0.2;entryDx=0;entryDy=0;entryPerimeter=0;exitX=0.01;exitY=0.404;exitDx=0;exitDy=0;exitPerimeter=0;" parent="Ks1MhP4g6qmOznbefHmb-11" source="Ks1MhP4g6qmOznbefHmb-15" target="Ks1MhP4g6qmOznbefHmb-17" edge="1">
                    <mxGeometry relative="1" as="geometry"/>
                </mxCell>
                <mxCell id="Ks1MhP4g6qmOznbefHmb-15" value="&lt;font style=&quot;font-size: 9px&quot;&gt;Worker 2&lt;/font&gt;" style="sketch=0;aspect=fixed;html=1;points=[];align=center;image;fontSize=12;image=img/lib/mscae/VM_Linux.svg;" parent="Ks1MhP4g6qmOznbefHmb-11" vertex="1">
                    <mxGeometry x="200" width="65.22" height="60" as="geometry"/>
                </mxCell>
                <mxCell id="Ks1MhP4g6qmOznbefHmb-16" value="" style="group" parent="Ks1MhP4g6qmOznbefHmb-11" vertex="1" connectable="0">
                    <mxGeometry x="110" y="70" width="60" height="70" as="geometry"/>
                </mxCell>
                <mxCell id="Ks1MhP4g6qmOznbefHmb-17" value="" style="sketch=0;html=1;dashed=0;whitespace=wrap;fillColor=#2875E2;strokeColor=#ffffff;points=[[0.005,0.63,0],[0.1,0.2,0],[0.9,0.2,0],[0.5,0,0],[0.995,0.63,0],[0.72,0.99,0],[0.5,1,0],[0.28,0.99,0]];shape=mxgraph.kubernetes.icon;prIcon=svc;fontSize=12;fontColor=#FFFFFF;direction=south;" parent="Ks1MhP4g6qmOznbefHmb-16" vertex="1">
                    <mxGeometry x="10" width="40" height="40" as="geometry"/>
                </mxCell>
                <mxCell id="Ks1MhP4g6qmOznbefHmb-18" value="&lt;font color=&quot;#ffffff&quot;&gt;Nginx controller&lt;/font&gt;" style="text;html=1;strokeColor=none;fillColor=none;align=center;verticalAlign=middle;whiteSpace=wrap;rounded=0;fontSize=9;fontColor=#000000;" parent="Ks1MhP4g6qmOznbefHmb-16" vertex="1">
                    <mxGeometry y="40" width="60" height="30" as="geometry"/>
                </mxCell>
                <mxCell id="Ks1MhP4g6qmOznbefHmb-19" value="" style="group" parent="Ks1MhP4g6qmOznbefHmb-11" vertex="1" connectable="0">
                    <mxGeometry y="130" width="60" height="69" as="geometry"/>
                </mxCell>
                <mxCell id="Ks1MhP4g6qmOznbefHmb-20" value="" style="sketch=0;html=1;dashed=0;whitespace=wrap;fillColor=#2875E2;strokeColor=#ffffff;points=[[0.005,0.63,0],[0.1,0.2,0],[0.9,0.2,0],[0.5,0,0],[0.995,0.63,0],[0.72,0.99,0],[0.5,1,0],[0.28,0.99,0]];shape=mxgraph.kubernetes.icon;prIcon=pod;fontSize=12;fontColor=#FFFFFF;" parent="Ks1MhP4g6qmOznbefHmb-19" vertex="1">
                    <mxGeometry x="10" width="40" height="38" as="geometry"/>
                </mxCell>
                <mxCell id="Ks1MhP4g6qmOznbefHmb-21" value="App 2" style="text;html=1;strokeColor=none;fillColor=none;align=center;verticalAlign=middle;whiteSpace=wrap;rounded=0;fontSize=9;fontColor=#FFFFFF;" parent="Ks1MhP4g6qmOznbefHmb-19" vertex="1">
                    <mxGeometry y="39" width="60" height="30" as="geometry"/>
                </mxCell>
                <mxCell id="Ks1MhP4g6qmOznbefHmb-22" value="" style="group" parent="Ks1MhP4g6qmOznbefHmb-11" vertex="1" connectable="0">
                    <mxGeometry y="10" width="60" height="69" as="geometry"/>
                </mxCell>
                <mxCell id="Ks1MhP4g6qmOznbefHmb-23" value="" style="sketch=0;html=1;dashed=0;whitespace=wrap;fillColor=#2875E2;strokeColor=#ffffff;points=[[0.005,0.63,0],[0.1,0.2,0],[0.9,0.2,0],[0.5,0,0],[0.995,0.63,0],[0.72,0.99,0],[0.5,1,0],[0.28,0.99,0]];shape=mxgraph.kubernetes.icon;prIcon=pod;fontSize=12;fontColor=#FFFFFF;" parent="Ks1MhP4g6qmOznbefHmb-22" vertex="1">
                    <mxGeometry x="10" width="40" height="38" as="geometry"/>
                </mxCell>
                <mxCell id="Ks1MhP4g6qmOznbefHmb-24" value="App 1" style="text;html=1;strokeColor=none;fillColor=none;align=center;verticalAlign=middle;whiteSpace=wrap;rounded=0;fontSize=9;fontColor=#FFFFFF;" parent="Ks1MhP4g6qmOznbefHmb-22" vertex="1">
                    <mxGeometry y="39" width="60" height="30" as="geometry"/>
                </mxCell>
                <mxCell id="Ks1MhP4g6qmOznbefHmb-25" value="" style="edgeStyle=none;html=1;fontSize=9;fontColor=#FFFFFF;entryX=0.995;entryY=0.63;entryDx=0;entryDy=0;entryPerimeter=0;" parent="Ks1MhP4g6qmOznbefHmb-11" source="Ks1MhP4g6qmOznbefHmb-17" target="Ks1MhP4g6qmOznbefHmb-23" edge="1">
                    <mxGeometry relative="1" as="geometry"/>
                </mxCell>
                <mxCell id="Ks1MhP4g6qmOznbefHmb-26" value="" style="edgeStyle=none;html=1;fontSize=9;fontColor=#FFFFFF;entryX=0.995;entryY=0.63;entryDx=0;entryDy=0;entryPerimeter=0;" parent="1" target="Ks1MhP4g6qmOznbefHmb-20" edge="1">
                    <mxGeometry relative="1" as="geometry">
                        <mxPoint x="490" y="440" as="sourcePoint"/>
                        <mxPoint x="440" y="399" as="targetPoint"/>
                    </mxGeometry>
                </mxCell>
                <mxCell id="Ks1MhP4g6qmOznbefHmb-27" value="&lt;font color=&quot;#000000&quot;&gt;User&lt;/font&gt;" style="sketch=0;aspect=fixed;html=1;points=[];align=center;image;fontSize=12;image=img/lib/mscae/Person.svg;fontColor=#FFFFFF;" parent="1" vertex="1">
                    <mxGeometry x="414" y="730" width="37" height="50" as="geometry"/>
                </mxCell>
                <mxCell id="Ks1MhP4g6qmOznbefHmb-28" value="&lt;font color=&quot;#000000&quot;&gt;Http Calls&lt;/font&gt;" style="outlineConnect=0;dashed=0;verticalLabelPosition=bottom;verticalAlign=top;align=center;html=1;shape=mxgraph.aws3.http_protocol;fillColor=#5294CF;gradientColor=none;fontSize=9;fontColor=#FFFFFF;" parent="1" vertex="1">
                    <mxGeometry x="822.22" y="623" width="63" height="66" as="geometry"/>
                </mxCell>
                <mxCell id="Ks1MhP4g6qmOznbefHmb-29" value="&lt;font color=&quot;#000000&quot;&gt;Kubectl&lt;br&gt;(Command Line interface)&lt;/font&gt;" style="outlineConnect=0;dashed=0;verticalLabelPosition=bottom;verticalAlign=top;align=center;html=1;shape=mxgraph.aws3.cli;fillColor=#444444;gradientColor=none;fontSize=9;fontColor=#FFFFFF;" parent="1" vertex="1">
                    <mxGeometry x="218" y="623" width="52" height="60" as="geometry"/>
                </mxCell>
                <mxCell id="Ks1MhP4g6qmOznbefHmb-30" value="" style="endArrow=classic;html=1;fontSize=9;fontColor=#FFFFFF;exitX=-0.025;exitY=0.748;exitDx=0;exitDy=0;exitPerimeter=0;entryX=0.5;entryY=1;entryDx=0;entryDy=0;entryPerimeter=0;" parent="1" source="Ks1MhP4g6qmOznbefHmb-27" target="Ks1MhP4g6qmOznbefHmb-29" edge="1">
                    <mxGeometry width="50" height="50" relative="1" as="geometry">
                        <mxPoint x="390" y="680" as="sourcePoint"/>
                        <mxPoint x="230" y="767" as="targetPoint"/>
                        <Array as="points">
                            <mxPoint x="244" y="770"/>
                        </Array>
                    </mxGeometry>
                </mxCell>
                <mxCell id="Ks1MhP4g6qmOznbefHmb-31" value="" style="endArrow=classic;html=1;fontSize=9;fontColor=#FFFFFF;exitX=0.957;exitY=0.768;exitDx=0;exitDy=0;exitPerimeter=0;entryX=0.5;entryY=1;entryDx=0;entryDy=0;entryPerimeter=0;" parent="1" source="Ks1MhP4g6qmOznbefHmb-27" target="Ks1MhP4g6qmOznbefHmb-28" edge="1">
                    <mxGeometry width="50" height="50" relative="1" as="geometry">
                        <mxPoint x="423.07500000000005" y="777.4000000000001" as="sourcePoint"/>
                        <mxPoint x="256" y="690" as="targetPoint"/>
                        <Array as="points">
                            <mxPoint x="854" y="768"/>
                        </Array>
                    </mxGeometry>
                </mxCell>
                <mxCell id="Ks1MhP4g6qmOznbefHmb-32" value="" style="endArrow=classic;html=1;fontSize=9;fontColor=#FFFFFF;exitX=0.57;exitY=0;exitDx=0;exitDy=0;exitPerimeter=0;" parent="1" source="Ks1MhP4g6qmOznbefHmb-29" target="Ks1MhP4g6qmOznbefHmb-9" edge="1">
                    <mxGeometry width="50" height="50" relative="1" as="geometry">
                        <mxPoint x="430" y="600" as="sourcePoint"/>
                        <mxPoint x="480" y="550" as="targetPoint"/>
                    </mxGeometry>
                </mxCell>
                <mxCell id="Ks1MhP4g6qmOznbefHmb-33" value="" style="endArrow=classic;html=1;fontSize=9;fontColor=#FFFFFF;exitX=0.5;exitY=0;exitDx=0;exitDy=0;exitPerimeter=0;" parent="1" source="Ks1MhP4g6qmOznbefHmb-28" edge="1">
                    <mxGeometry width="50" height="50" relative="1" as="geometry">
                        <mxPoint x="690" y="610" as="sourcePoint"/>
                        <mxPoint x="854" y="470" as="targetPoint"/>
                    </mxGeometry>
                </mxCell>
            </root>
        </mxGraphModel>
    </diagram>
</mxfile>